<svg width="15" height="16" viewBox="0 0 15 16" fill="none" xmlns="http://www.w3.org/2000/svg">
<path d="M0.5 3.55561C0.5 2.8512 1.07336 2.27783 1.77778 2.27783H5.72222V5.33339C5.72222 6.1012 6.3433 6.72228 7.11111 6.72228H10.1667V14.2223C10.1667 14.9267 9.5933 15.5001 8.88889 15.5001H1.77778C1.07336 15.5001 0.5 14.9267 0.5 14.2223V3.55561Z" stroke="white"/>
<path d="M3.55566 1.77778C3.55566 0.797222 4.35289 0 5.33344 0H9.77789V3.55556C9.77789 4.04722 10.1751 4.44444 10.6668 4.44444H14.2223V12.4444C14.2223 13.425 13.4251 14.2222 12.4446 14.2222H5.33344C4.35289 14.2222 3.55566 13.425 3.55566 12.4444V1.77778ZM14.2223 3.55556H10.6668V0L14.2223 3.55556Z" fill="white"/>
</svg>
