<svg width="20" height="20" viewBox="0 0 20 20" fill="none" xmlns="http://www.w3.org/2000/svg">
<circle cx="10" cy="10" r="9" stroke="white" stroke-width="1.5"/>
<path d="M8.22056 5.48089C8.07018 5.11762 7.67371 4.92427 7.29482 5.02778L5.57615 5.49651C5.23632 5.59026 5 5.89884 5 6.25039C5 11.0822 8.9178 15 13.7496 15C14.1012 15 14.4097 14.7637 14.5035 14.4239L14.9722 12.7052C15.0757 12.3263 14.8824 11.9298 14.5191 11.7794L12.6442 10.9982C12.3258 10.8654 11.9567 10.9572 11.7399 11.2248L10.9509 12.1876C9.57597 11.5373 8.46274 10.424 7.81238 9.04909L8.77522 8.26202C9.04279 8.04328 9.13458 7.6761 9.00178 7.35776L8.22056 5.48284V5.48089Z" fill="white"/>
<path d="M15.4999 3.50018L4.56811 17.4894" stroke="white" stroke-width="1.5"/>
</svg>
