<svg width="16" height="14" viewBox="0 0 16 14" fill="none" xmlns="http://www.w3.org/2000/svg">
<path d="M4.75422 0.196346C5.06357 0.474444 5.08857 0.946273 4.81047 1.25562L2.56069 3.75537C2.4232 3.90848 2.22947 3.9991 2.02324 4.00222C1.81701 4.00535 1.62015 3.92723 1.47329 3.7835L0.220291 2.53362C-0.0703056 2.2399 -0.0703056 1.76494 0.220291 1.47122C0.510888 1.1775 0.988966 1.1775 1.27956 1.47122L1.97012 2.16178L3.69183 0.249466C3.96992 -0.0598789 4.44175 -0.0848766 4.7511 0.193221L4.75422 0.196346ZM4.75422 5.19586C5.06357 5.47396 5.08857 5.94578 4.81047 6.25513L2.56069 8.75489C2.4232 8.908 2.22947 8.99861 2.02324 9.00174C1.81701 9.00486 1.62015 8.92674 1.47329 8.78301L0.220291 7.53313C-0.0734303 7.23941 -0.0734303 6.76445 0.220291 6.47386C0.514012 6.18326 0.988966 6.18014 1.27956 6.47386L1.97012 7.16442L3.69183 5.2521C3.96992 4.94276 4.44175 4.91776 4.7511 5.19586H4.75422ZM7.00088 2.00242C7.00088 1.44935 7.44771 1.00252 8.00078 1.00252H15.0001C15.5532 1.00252 16 1.44935 16 2.00242C16 2.55549 15.5532 3.00232 15.0001 3.00232H8.00078C7.44771 3.00232 7.00088 2.55549 7.00088 2.00242ZM7.00088 7.00193C7.00088 6.44886 7.44771 6.00203 8.00078 6.00203H15.0001C15.5532 6.00203 16 6.44886 16 7.00193C16 7.555 15.5532 8.00183 15.0001 8.00183H8.00078C7.44771 8.00183 7.00088 7.555 7.00088 7.00193ZM5.00107 12.0014C5.00107 11.4484 5.44791 11.0015 6.00098 11.0015H15.0001C15.5532 11.0015 16 11.4484 16 12.0014C16 12.5545 15.5532 13.0013 15.0001 13.0013H6.00098C5.44791 13.0013 5.00107 12.5545 5.00107 12.0014ZM1.50142 10.5016C1.8992 10.5016 2.2807 10.6596 2.56197 10.9409C2.84325 11.2222 3.00127 11.6037 3.00127 12.0014C3.00127 12.3992 2.84325 12.7807 2.56197 13.062C2.2807 13.3433 1.8992 13.5013 1.50142 13.5013C1.10363 13.5013 0.722136 13.3433 0.440859 13.062C0.159582 12.7807 0.00156234 12.3992 0.00156234 12.0014C0.00156234 11.6037 0.159582 11.2222 0.440859 10.9409C0.722136 10.6596 1.10363 10.5016 1.50142 10.5016Z" fill="#B0B2B9"/>
</svg>
