<svg width="12" height="16" viewBox="0 0 12 16" fill="none" xmlns="http://www.w3.org/2000/svg">
<path fill-rule="evenodd" clip-rule="evenodd" d="M2 0C0.896875 0 0 0.896875 0 2V14C0 15.1031 0.896875 16 2 16H10C11.1031 16 12 15.1031 12 14V5H8C7.44688 5 7 4.55312 7 4V0H2ZM8 4H12L8 0V4ZM3 7.75003C3 7.33634 3.33634 7 3.75003 7H8.25023C8.66392 7 9.00026 7.33634 9.00026 7.75003V11.1252C9.00026 11.5389 8.66392 11.8752 8.25023 11.8752H6.62477L5.17509 12.9628C5.11767 13.0049 5.04149 13.012 4.97821 12.9803C4.91493 12.9487 4.87508 12.8842 4.87508 12.8127V11.8752H3.75003C3.33634 11.8752 3 11.5389 3 11.1252V7.75003Z" fill="white"/>
</svg>
