<svg width="12" height="16" viewBox="0 0 12 16" fill="none" xmlns="http://www.w3.org/2000/svg">
<path d="M2 0C0.896875 0 0 0.896875 0 2V14C0 15.1031 0.896875 16 2 16H10C11.1031 16 12 15.1031 12 14V5H8C7.44688 5 7 4.55312 7 4V0H2ZM8 0V4H12L8 0ZM4.78125 9.03125L3.8125 10L4.78125 10.9688C5.075 11.2625 5.075 11.7375 4.78125 12.0281C4.4875 12.3187 4.0125 12.3219 3.72187 12.0281L2.21875 10.5312C1.925 10.2375 1.925 9.7625 2.21875 9.47188L3.71875 7.97188C4.0125 7.67813 4.4875 7.67813 4.77812 7.97188C5.06875 8.26562 5.07187 8.74063 4.77812 9.03125H4.78125ZM8.28125 7.96875L9.78125 9.46875C10.075 9.7625 10.075 10.2375 9.78125 10.5281L8.28125 12.0281C7.9875 12.3219 7.5125 12.3219 7.22188 12.0281C6.93125 11.7344 6.92813 11.2594 7.22188 10.9688L8.19063 10L7.22188 9.03125C6.92813 8.7375 6.92813 8.2625 7.22188 7.97188C7.51562 7.68125 7.99062 7.67813 8.28125 7.97188V7.96875Z" fill="white"/>
</svg>
