<svg width="16" height="16" viewBox="0 0 16 16" fill="none" xmlns="http://www.w3.org/2000/svg">
<path fill-rule="evenodd" clip-rule="evenodd" d="M0 2.00009C0 0.896914 0.896914 0 2.00009 0H14.0006C15.1038 0 16.0007 0.896914 16.0007 2.00009V11.0005C16.0007 12.1036 15.1038 13.0006 14.0006 13.0006H9.66604L5.80025 15.9007C5.64712 16.0132 5.44398 16.0319 5.27523 15.9476C5.10647 15.8632 5.00022 15.6913 5.00022 15.5007V13.0006H2.00009C0.896914 13.0006 0 12.1036 0 11.0005V2.00009ZM4 3C3.44772 3 3 3.44772 3 4C3 4.55228 3.44772 5 4 5L8 5C8.55228 5 9 4.55229 9 4C9 3.44772 8.55228 3 8 3L4 3Z" fill="#B0B2B9"/>
</svg>
