<svg width="16" height="16" viewBox="0 0 16 16" fill="none" xmlns="http://www.w3.org/2000/svg">
<path fill-rule="evenodd" clip-rule="evenodd" d="M10.6336 0.0894284C10.7434 -0.075219 11 0.00248727 11 0.200369V4H12C14.2091 4 16 5.79086 16 8V12C16 14.2091 14.2091 16 12 16H4C1.79086 16 0 14.2091 0 12V8C0 5.79086 1.79086 4 4 4H8.02654L10.6336 0.0894284ZM13.9408 11.0326C14.1212 10.6988 14.2114 10.294 14.2114 9.81814C14.2114 9.34229 14.1212 8.93746 13.9408 8.60365C13.7618 8.26984 13.5175 8.01558 13.2078 7.84087C12.8996 7.66473 12.553 7.57666 12.168 7.57666C11.7803 7.57666 11.4322 7.66473 11.124 7.84087C10.8158 8.01558 10.5722 8.26984 10.3932 8.60365C10.2142 8.93746 10.1247 9.34229 10.1247 9.81814C10.1247 10.2926 10.2142 10.6967 10.3932 11.0305C10.5722 11.3643 10.8158 11.6193 11.124 11.7954C11.4322 11.9715 11.7803 12.0596 12.168 12.0596C12.553 12.0596 12.8996 11.9723 13.2078 11.7975C13.5175 11.6214 13.7618 11.3664 13.9408 11.0326ZM13.1375 9.03831C13.2298 9.24996 13.276 9.5099 13.276 9.81814C13.276 10.1264 13.2298 10.3863 13.1375 10.598C13.0466 10.8096 12.918 10.9701 12.7518 11.0795C12.5856 11.1889 12.391 11.2436 12.168 11.2436C11.945 11.2436 11.7504 11.1889 11.5842 11.0795C11.418 10.9701 11.2888 10.8096 11.1964 10.598C11.1055 10.3863 11.0601 10.1264 11.0601 9.81814C11.0601 9.5099 11.1055 9.24996 11.1964 9.03831C11.2888 8.82666 11.418 8.66615 11.5842 8.55677C11.7504 8.4474 11.945 8.39271 12.168 8.39271C12.391 8.39271 12.5856 8.4474 12.7518 8.55677C12.918 8.66615 13.0466 8.82666 13.1375 9.03831ZM2.37915 12V7.63632H4.10074C4.43171 7.63632 4.71367 7.69953 4.94662 7.82595C5.17958 7.95095 5.35713 8.12496 5.47929 8.34797C5.60287 8.56956 5.66466 8.82524 5.66466 9.11501C5.66466 9.40479 5.60216 9.66047 5.47716 9.88206C5.35216 10.1036 5.17105 10.2762 4.93384 10.3998C4.69804 10.5234 4.41253 10.5852 4.0773 10.5852H3.30174V12H2.37915ZM3.92816 9.84584H3.30174V8.39058H3.92389C4.10287 8.39058 4.2506 8.42112 4.36708 8.4822C4.48355 8.54186 4.5702 8.62638 4.62702 8.73575C4.68526 8.84371 4.71438 8.97013 4.71438 9.11501C4.71438 9.25848 4.68526 9.38561 4.62702 9.4964C4.5702 9.60578 4.48355 9.69172 4.36708 9.75422C4.25202 9.8153 4.10571 9.84584 3.92816 9.84584ZM6.26392 12V7.63632H7.98551C8.31505 7.63632 8.5963 7.69527 8.82926 7.81317C9.06363 7.92964 9.2419 8.09513 9.36406 8.30962C9.48764 8.52268 9.54943 8.77339 9.54943 9.06175C9.54943 9.35152 9.48693 9.60081 9.36193 9.80961C9.23693 10.017 9.05582 10.1761 8.8186 10.2869C8.8056 10.293 8.79244 10.2989 8.77913 10.3047L9.70497 12H8.6865L7.85995 10.4531H7.1865V12H6.26392ZM7.81292 9.7116H7.1865V8.39058H7.80866C7.98622 8.39058 8.13323 8.41686 8.24971 8.46942C8.36761 8.52055 8.45497 8.59584 8.51179 8.69527C8.57002 8.7947 8.59914 8.91686 8.59914 9.06175C8.59914 9.20521 8.57002 9.32524 8.51179 9.42183C8.45497 9.51842 8.36832 9.59087 8.25184 9.63916C8.13536 9.68746 7.98906 9.7116 7.81292 9.7116Z" fill="white"/>
</svg>
