<svg width="26" height="26" viewBox="0 0 26 26" fill="none" xmlns="http://www.w3.org/2000/svg">
<rect x="1" y="1" width="24" height="24" rx="6" fill="#FDEDDC" stroke="#F49C3C"/>
<path d="M10.5 6C10.984 6 11.375 6.39102 11.375 6.875V7.75H14.875V6.875C14.875 6.39102 15.266 6 15.75 6C16.234 6 16.625 6.39102 16.625 6.875V7.75H17.9375C18.6621 7.75 19.25 8.33789 19.25 9.0625V10.375H7V9.0625C7 8.33789 7.58789 7.75 8.3125 7.75H9.625V6.875C9.625 6.39102 10.016 6 10.5 6ZM7 11.25H19.25V18.6875C19.25 19.4121 18.6621 20 17.9375 20H8.3125C7.58789 20 7 19.4121 7 18.6875V11.25ZM8.75 13.4375V14.3125C8.75 14.5531 8.94687 14.75 9.1875 14.75H10.0625C10.3031 14.75 10.5 14.5531 10.5 14.3125V13.4375C10.5 13.1969 10.3031 13 10.0625 13H9.1875C8.94687 13 8.75 13.1969 8.75 13.4375ZM12.25 13.4375V14.3125C12.25 14.5531 12.4469 14.75 12.6875 14.75H13.5625C13.8031 14.75 14 14.5531 14 14.3125V13.4375C14 13.1969 13.8031 13 13.5625 13H12.6875C12.4469 13 12.25 13.1969 12.25 13.4375ZM16.1875 13C15.9469 13 15.75 13.1969 15.75 13.4375V14.3125C15.75 14.5531 15.9469 14.75 16.1875 14.75H17.0625C17.3031 14.75 17.5 14.5531 17.5 14.3125V13.4375C17.5 13.1969 17.3031 13 17.0625 13H16.1875ZM8.75 16.9375V17.8125C8.75 18.0531 8.94687 18.25 9.1875 18.25H10.0625C10.3031 18.25 10.5 18.0531 10.5 17.8125V16.9375C10.5 16.6969 10.3031 16.5 10.0625 16.5H9.1875C8.94687 16.5 8.75 16.6969 8.75 16.9375ZM12.6875 16.5C12.4469 16.5 12.25 16.6969 12.25 16.9375V17.8125C12.25 18.0531 12.4469 18.25 12.6875 18.25H13.5625C13.8031 18.25 14 18.0531 14 17.8125V16.9375C14 16.6969 13.8031 16.5 13.5625 16.5H12.6875ZM15.75 16.9375V17.8125C15.75 18.0531 15.9469 18.25 16.1875 18.25H17.0625C17.3031 18.25 17.5 18.0531 17.5 17.8125V16.9375C17.5 16.6969 17.3031 16.5 17.0625 16.5H16.1875C15.9469 16.5 15.75 16.6969 15.75 16.9375Z" fill="#F59D3C"/>
</svg>
