<svg width="23" height="18" viewBox="0 0 23 18" fill="none" xmlns="http://www.w3.org/2000/svg">
<path d="M19.4561 8.74319V8.8634L21.995 6.3245C22.7928 5.52676 22.7928 4.23728 21.995 3.43954L19.1502 0.5983C18.3524 -0.199433 17.0629 -0.199433 16.2652 0.5983L14.8045 2.05899C14.7062 2.04806 14.6042 2.04078 14.5022 2.04078H10.4224C9.07103 2.04078 7.96003 3.06071 7.81433 4.37205H7.79976V8.74319C7.79976 9.54821 8.45179 10.2002 9.2568 10.2002C10.0618 10.2002 10.7139 9.54821 10.7139 8.74319V6.12051V6.11687V5.53769H11.2967H16.2506C16.2506 5.53769 16.2506 5.53769 16.2543 5.53769H16.542C18.1521 5.53769 19.4561 6.84175 19.4561 8.45179V8.74319ZM11.8795 6.70333V8.74319C11.8795 10.193 10.7066 11.3659 9.2568 11.3659C7.80704 11.3659 6.63412 10.193 6.63412 8.74319V4.42305C5.32642 4.64889 4.23728 5.59962 3.86573 6.90731L3.2647 9.00546L0.5983 11.6719C-0.199433 12.4696 -0.199433 13.7591 0.5983 14.5568L3.44319 17.4017C4.24092 18.1994 5.53041 18.1994 6.32814 17.4017L7.70141 16.0284C7.73419 16.0284 7.76697 16.0321 7.79976 16.0321H13.6279C14.5932 16.0321 15.3764 15.2489 15.3764 14.2836C15.3764 14.0796 15.34 13.8829 15.2781 13.7008H15.3764C16.3417 13.7008 17.1249 12.9176 17.1249 11.9523C17.1249 11.4861 16.9427 11.0635 16.644 10.7503C17.5802 10.5681 18.2869 9.74491 18.2905 8.75412V8.73955C18.2869 7.61763 17.3762 6.70697 16.2506 6.70697H11.8795V6.70333Z" fill="#B0B2B9"/>
</svg>
