<svg width="21" height="20" viewBox="0 0 21 20" fill="none" xmlns="http://www.w3.org/2000/svg">
<path d="M0 2.5C0 1.12109 1.12109 0 2.5 0H8.75V5C8.75 5.69141 9.30859 6.25 10 6.25H15V11.875H6.875C5.49609 11.875 4.375 12.9961 4.375 14.375V20H2.5C1.12109 20 0 18.8789 0 17.5V2.5ZM15 5H10V0L15 5Z" fill="#33A6DD"/>
<path d="M15.9141 14.3906C15.849 14.2188 15.9102 14.1328 16.0977 14.1328H16.7188C16.8933 14.1328 17.013 14.2227 17.0781 14.4023L18.2735 17.6641C18.3334 17.8307 18.3685 17.9427 18.3789 18C18.3893 18.0547 18.4011 18.1471 18.4141 18.2773H18.4297C18.4427 18.1471 18.4544 18.0547 18.4649 18C18.4753 17.9427 18.5104 17.8307 18.5703 17.6641L19.7656 14.4023C19.8308 14.2227 19.9505 14.1328 20.125 14.1328H20.7461C20.9336 14.1328 20.9948 14.2188 20.9297 14.3906L19.0625 19.418C18.9844 19.6289 18.862 19.7344 18.6953 19.7344H18.1485C17.9818 19.7344 17.8594 19.6289 17.7813 19.418L15.9141 14.3906Z" fill="#33A6DD"/>
<path d="M11.2305 19.3164C11.0691 19.194 11.03 19.0703 11.1134 18.9453L11.4141 18.4922C11.5131 18.3438 11.6576 18.3359 11.8477 18.4688C11.9936 18.5703 12.1837 18.6758 12.418 18.7852C12.655 18.8919 12.9037 18.9453 13.1641 18.9453C13.3464 18.9453 13.5222 18.9245 13.6915 18.8828C13.8607 18.8411 13.9897 18.7604 14.0782 18.6406C14.1667 18.5208 14.211 18.3789 14.211 18.2148C14.211 18.0977 14.1915 17.9948 14.1524 17.9062C14.1134 17.8177 14.0496 17.7448 13.961 17.6875C13.8725 17.6302 13.7813 17.582 13.6876 17.543C13.5235 17.4753 13.3165 17.4089 13.0665 17.3438C12.8191 17.276 12.5743 17.1953 12.3321 17.1016C12.116 17.0182 11.918 16.9036 11.7384 16.7578C11.5587 16.612 11.4193 16.4479 11.3204 16.2656C11.2214 16.0833 11.1719 15.8398 11.1719 15.5352C11.1719 15.1732 11.2891 14.8633 11.5235 14.6055C11.7579 14.3477 12.0274 14.1823 12.3321 14.1094C12.6368 14.0365 12.9441 14 13.254 14C13.5613 14 13.8777 14.0469 14.2032 14.1406C14.5313 14.2344 14.7787 14.3516 14.9454 14.4922C15.1094 14.6302 15.1498 14.7552 15.0665 14.8672L14.7501 15.293C14.6433 15.4388 14.5001 15.4505 14.3204 15.3281C14.2058 15.25 14.0482 15.1628 13.8477 15.0664C13.6498 14.9701 13.4428 14.9219 13.2266 14.9219C13.073 14.9219 12.9311 14.9349 12.8009 14.9609C12.6732 14.987 12.56 15.0495 12.461 15.1484C12.3621 15.2474 12.3126 15.3698 12.3126 15.5156C12.3126 15.6562 12.349 15.7708 12.4219 15.8594C12.4949 15.9453 12.5756 16.0104 12.6641 16.0547C12.7527 16.0964 12.8425 16.1315 12.9337 16.1602C13.2149 16.2513 13.4662 16.332 13.6876 16.4023C13.9089 16.4701 14.1134 16.5456 14.3009 16.6289C14.5613 16.7461 14.7605 16.8633 14.8985 16.9805C15.0365 17.0977 15.1498 17.2578 15.2384 17.4609C15.3295 17.6641 15.3751 17.9062 15.3751 18.1875C15.3751 18.6042 15.2423 18.9492 14.9766 19.2227C14.711 19.4935 14.4154 19.668 14.0899 19.7461C13.767 19.8268 13.4519 19.8672 13.1446 19.8672C12.6915 19.8672 12.323 19.8229 12.0391 19.7344C11.7553 19.6484 11.4857 19.5091 11.2305 19.3164Z" fill="#33A6DD"/>
<path d="M5.33594 16.9336C5.33594 16.0352 5.5638 15.3216 6.01953 14.793C6.47526 14.2643 7.13281 14 7.99219 14C8.48698 14 8.90625 14.0768 9.25 14.2305C9.59375 14.3841 9.83594 14.6068 9.97656 14.8984C10.0703 15.0911 10.0547 15.2214 9.92969 15.2891L9.46094 15.5391C9.29688 15.6276 9.16146 15.5781 9.05469 15.3906C8.98698 15.2708 8.86068 15.1628 8.67578 15.0664C8.49349 14.9701 8.27865 14.9219 8.03125 14.9219C7.48438 14.9219 7.10156 15.0951 6.88281 15.4414C6.66406 15.7852 6.55469 16.2826 6.55469 16.9336C6.55469 17.5846 6.66406 18.0833 6.88281 18.4297C7.10156 18.7734 7.48438 18.9453 8.03125 18.9453C8.32552 18.9453 8.57292 18.8789 8.77344 18.7461C8.97656 18.6133 9.11719 18.487 9.19531 18.3672C9.32292 18.1719 9.45833 18.1224 9.60156 18.2188L10.0703 18.5312C10.1979 18.6172 10.2109 18.7474 10.1094 18.9219C9.95833 19.1823 9.69922 19.4049 9.33203 19.5898C8.96484 19.7747 8.51823 19.8672 7.99219 19.8672C7.14583 19.8672 6.49089 19.6029 6.02734 19.0742C5.56641 18.5456 5.33594 17.832 5.33594 16.9336Z" fill="#33A6DD"/>
</svg>
