<svg width="26" height="26" viewBox="0 0 26 26" fill="none" xmlns="http://www.w3.org/2000/svg">
<rect x="1" y="1" width="24" height="24" rx="6" fill="#FEE7E7" stroke="#FF5353"/>
<path d="M10.6969 6.48398L10.5 6.875H7.875C7.39102 6.875 7 7.26602 7 7.75C7 8.23398 7.39102 8.625 7.875 8.625H18.375C18.859 8.625 19.25 8.23398 19.25 7.75C19.25 7.26602 18.859 6.875 18.375 6.875H15.75L15.5531 6.48398C15.4055 6.18594 15.102 6 14.7711 6H11.4789C11.148 6 10.8445 6.18594 10.6969 6.48398ZM18.375 9.5H7.875L8.45469 18.7695C8.49844 19.4613 9.07266 20 9.76445 20H16.4855C17.1773 20 17.7516 19.4613 17.7953 18.7695L18.375 9.5Z" fill="#FF5353"/>
</svg>
