<svg width="26" height="26" viewBox="0 0 26 26" fill="none" xmlns="http://www.w3.org/2000/svg">
<rect x="1" y="1" width="24" height="24" rx="6" fill="#DAF0FB" stroke="#25A0DB"/>
<path d="M12.9988 8C11.0351 8 9.46263 8.89437 8.31794 9.95886C7.18054 11.0136 6.41984 12.2774 6.06015 13.145C5.97995 13.337 5.97995 13.5509 6.06015 13.7429C6.41984 14.6105 7.18054 15.8743 8.31794 16.9291C9.46263 17.9936 11.0351 18.8879 12.9988 18.8879C14.9625 18.8879 16.5349 17.9936 17.6796 16.9291C18.817 15.8719 19.5777 14.6105 19.9398 13.7429C20.02 13.5509 20.02 13.337 19.9398 13.145C19.5777 12.2774 18.817 11.0136 17.6796 9.95886C16.5349 8.89437 14.9625 8 12.9988 8ZM9.49909 13.444C9.49909 12.5158 9.86781 11.6256 10.5241 10.9693C11.1804 10.313 12.0706 9.94428 12.9988 9.94428C13.927 9.94428 14.8171 10.313 15.4734 10.9693C16.1298 11.6256 16.4985 12.5158 16.4985 13.444C16.4985 14.3721 16.1298 15.2623 15.4734 15.9186C14.8171 16.575 13.927 16.9437 12.9988 16.9437C12.0706 16.9437 11.1804 16.575 10.5241 15.9186C9.86781 15.2623 9.49909 14.3721 9.49909 13.444ZM12.9988 11.8886C12.9988 12.7465 12.3013 13.444 11.4434 13.444C11.2708 13.444 11.1055 13.4148 10.95 13.3638C10.8163 13.32 10.6608 13.4027 10.6657 13.5436C10.6729 13.7113 10.6972 13.879 10.7434 14.0467C11.0764 15.291 12.3572 16.0299 13.6015 15.6969C14.8458 15.3639 15.5847 14.0832 15.2517 12.8388C14.9819 11.8302 14.09 11.1522 13.0984 11.1108C12.9575 11.106 12.8748 11.2591 12.9186 11.3952C12.9696 11.5507 12.9988 11.716 12.9988 11.8886Z" fill="#25A0DB"/>
</svg>
