<svg width="14" height="13" viewBox="0 0 14 13" fill="none" xmlns="http://www.w3.org/2000/svg">
<path d="M0.782121 0.951899L0.782146 0.951911L0.784904 0.94606C0.841809 0.825354 0.960705 0.75 1.09374 0.75H12.9076C13.0406 0.75 13.1595 0.825354 13.2165 0.946061C13.274 1.06817 13.2564 1.2102 13.1719 1.31384C13.1719 1.31393 13.1718 1.31401 13.1717 1.31409L8.17046 7.42555L8.00088 7.63277V7.90053V11.3763C8.00088 11.4251 7.97391 11.4666 7.9339 11.4864C7.88517 11.5105 7.83626 11.5032 7.80171 11.4772L7.80072 11.4764L6.05051 10.1638L6.05052 10.1637L6.04693 10.1611C6.02007 10.1412 6.00047 10.1069 6.00047 10.0637V7.90053V7.63275L5.83087 7.42552L0.827317 1.31189C0.827208 1.31176 0.827099 1.31162 0.82699 1.31149C0.742876 1.20798 0.727444 1.06533 0.782121 0.951899Z" stroke="#25A0DB" stroke-width="1.5"/>
</svg>
