<svg width="15" height="16" viewBox="0 0 15 16" fill="none" xmlns="http://www.w3.org/2000/svg">
<path d="M0.5 3.55561C0.5 2.8512 1.07336 2.27783 1.77778 2.27783H5.72222V5.33339C5.72222 6.1012 6.3433 6.72228 7.11111 6.72228H10.1667V14.2223C10.1667 14.9267 9.5933 15.5001 8.88889 15.5001H1.77778C1.07336 15.5001 0.5 14.9267 0.5 14.2223V3.55561Z" stroke="white"/>
<path d="M3.55554 1.77778C3.55554 0.797222 4.35276 0 5.33332 0H9.77776V3.55556C9.77776 4.04722 10.175 4.44444 10.6667 4.44444H14.2222V12.4444C14.2222 13.425 13.425 14.2222 12.4444 14.2222H5.33332C4.35276 14.2222 3.55554 13.425 3.55554 12.4444V1.77778ZM14.2222 3.55556H10.6667V0L14.2222 3.55556Z" fill="white"/>
</svg>
