<svg width="26" height="26" viewBox="0 0 26 26" fill="none" xmlns="http://www.w3.org/2000/svg">
<rect x="1" y="1" width="24" height="24" rx="6" fill="#D3F5D3"/>
<rect x="1" y="1" width="24" height="24" rx="6" fill="white"/>
<rect x="1" y="1" width="24" height="24" rx="6" stroke="#00C000"/>
<path d="M10.901 7.18901C10.5156 6.9453 10.0312 6.93727 9.63802 7.16491C9.24479 7.39255 9 7.82104 9 8.28703V17.7139C9 18.1799 9.24479 18.6084 9.63802 18.8361C10.0312 19.0637 10.5156 19.053 10.901 18.812L18.401 14.0985C18.7734 13.8655 19 13.4504 19 13.0005C19 12.5506 18.7734 12.1381 18.401 11.9025L10.901 7.18901Z" fill="#00C000"/>
</svg>
