<svg width="20" height="20" viewBox="0 0 20 20" fill="none" xmlns="http://www.w3.org/2000/svg">
<path d="M0 8.74913C0 9.44054 0.558594 9.99913 1.25 9.99913C1.94141 9.99913 2.5 9.44054 2.5 8.74913C2.5 6.67882 4.17969 4.99913 6.25 4.99913H12.5V6.24913C12.5 6.75304 12.8047 7.21007 13.2734 7.40538C13.7422 7.60069 14.2773 7.49132 14.6367 7.13585L17.1367 4.63585C17.625 4.14757 17.625 3.3546 17.1367 2.86632L14.6367 0.366319C14.2773 0.00694443 13.7422 -0.0985243 13.2734 0.0967882C12.8047 0.292101 12.5 0.745226 12.5 1.24913V2.49913H6.25C2.79688 2.49913 0 5.29601 0 8.74913ZM20 11.2491C20 10.5577 19.4414 9.99913 18.75 9.99913C18.0586 9.99913 17.5 10.5577 17.5 11.2491C17.5 13.3194 15.8203 14.9991 13.75 14.9991H7.5V13.7491C7.5 13.2452 7.19531 12.7882 6.72656 12.5929C6.25781 12.3976 5.72266 12.5069 5.36328 12.8624L2.86328 15.3624C2.375 15.8507 2.375 16.6437 2.86328 17.1319L5.36328 19.6319C5.72266 19.9913 6.25781 20.0968 6.72656 19.9015C7.19531 19.7062 7.5 19.253 7.5 18.7452V17.4952H13.75C17.2031 17.4952 20 14.6984 20 11.2452V11.2491Z" fill="white"/>
</svg>
