<svg width="14" height="14" viewBox="0 0 14 14" fill="none" xmlns="http://www.w3.org/2000/svg">
<path opacity="0.55" d="M13.1236 0.876427C13.1236 0.523731 12.9103 0.203844 12.5822 0.0671399C12.2541 -0.069564 11.8796 0.00699021 11.628 0.255791L10.436 1.45058C9.12362 2.76294 7.34373 3.50114 5.48729 3.50114H5.24943H4.37452H1.74981C0.78468 3.50114 0 4.28582 0 5.25095V7.87567C0 8.8408 0.78468 9.62548 1.74981 9.62548V13.1251C1.74981 13.609 2.14078 14 2.62471 14H4.37452C4.85846 14 5.24943 13.609 5.24943 13.1251V9.62548H5.48729C7.34373 9.62548 9.12362 10.3637 10.436 11.676L11.628 12.8681C11.8796 13.1196 12.2541 13.1934 12.5822 13.0567C12.9103 12.92 13.1236 12.6029 13.1236 12.2475V8.21196C13.6321 7.97136 13.9985 7.32338 13.9985 6.56057C13.9985 5.79777 13.6321 5.14979 13.1236 4.90919V0.876427ZM11.3738 2.97346V6.56331V10.1532C9.76613 8.69042 7.66909 7.87567 5.48729 7.87567H5.24943V5.25095H5.48729C7.66909 5.25095 9.76613 4.4362 11.3738 2.97346Z" fill="white"/>
</svg>
