<svg width="21" height="20" viewBox="0 0 21 20" fill="none" xmlns="http://www.w3.org/2000/svg">
<path d="M0 2.5C0 1.12109 1.12109 0 2.5 0H8.75V5C8.75 5.69141 9.30859 6.25 10 6.25H15V11.875H6.875C5.49609 11.875 4.375 12.9961 4.375 14.375V20H2.5C1.12109 20 0 18.8789 0 17.5V2.5ZM15 5H10V0L15 5Z" fill="#33A6DD"/>
<path d="M16.3548 19.3164C16.1934 19.194 16.1543 19.0703 16.2376 18.9453L16.5384 18.4922C16.6374 18.3438 16.7819 18.3359 16.972 18.4688C17.1178 18.5703 17.3079 18.6758 17.5423 18.7852C17.7793 18.8919 18.028 18.9453 18.2884 18.9453C18.4707 18.9453 18.6465 18.9245 18.8157 18.8828C18.985 18.8411 19.1139 18.7604 19.2025 18.6406C19.291 18.5208 19.3353 18.3789 19.3353 18.2148C19.3353 18.0977 19.3157 17.9948 19.2767 17.9062C19.2376 17.8177 19.1738 17.7448 19.0853 17.6875C18.9967 17.6302 18.9056 17.582 18.8118 17.543C18.6478 17.4753 18.4407 17.4089 18.1907 17.3438C17.9434 17.276 17.6986 17.1953 17.4564 17.1016C17.2402 17.0182 17.0423 16.9036 16.8626 16.7578C16.6829 16.612 16.5436 16.4479 16.4447 16.2656C16.3457 16.0833 16.2962 15.8398 16.2962 15.5352C16.2962 15.1732 16.4134 14.8633 16.6478 14.6055C16.8822 14.3477 17.1517 14.1823 17.4564 14.1094C17.7611 14.0365 18.0684 14 18.3782 14C18.6855 14 19.0019 14.0469 19.3275 14.1406C19.6556 14.2344 19.903 14.3516 20.0697 14.4922C20.2337 14.6302 20.2741 14.7552 20.1907 14.8672L19.8743 15.293C19.7676 15.4388 19.6243 15.4505 19.4447 15.3281C19.3301 15.25 19.1725 15.1628 18.972 15.0664C18.7741 14.9701 18.567 14.9219 18.3509 14.9219C18.1973 14.9219 18.0553 14.9349 17.9251 14.9609C17.7975 14.987 17.6842 15.0495 17.5853 15.1484C17.4863 15.2474 17.4368 15.3698 17.4368 15.5156C17.4368 15.6562 17.4733 15.7708 17.5462 15.8594C17.6191 15.9453 17.6999 16.0104 17.7884 16.0547C17.8769 16.0964 17.9668 16.1315 18.0579 16.1602C18.3392 16.2513 18.5905 16.332 18.8118 16.4023C19.0332 16.4701 19.2376 16.5456 19.4251 16.6289C19.6855 16.7461 19.8848 16.8633 20.0228 16.9805C20.1608 17.0977 20.2741 17.2578 20.3626 17.4609C20.4538 17.6641 20.4993 17.9062 20.4993 18.1875C20.4993 18.6042 20.3665 18.9492 20.1009 19.2227C19.8353 19.4935 19.5397 19.668 19.2142 19.7461C18.8913 19.8268 18.5762 19.8672 18.2689 19.8672C17.8157 19.8672 17.4473 19.8229 17.1634 19.7344C16.8795 19.6484 16.61 19.5091 16.3548 19.3164Z" fill="#33A6DD"/>
<path d="M12.0229 19.7344C11.8407 19.7344 11.7495 19.6367 11.7495 19.4414V14.4258C11.7495 14.2305 11.8407 14.1328 12.0229 14.1328H12.6558C12.812 14.1328 12.8901 14.2305 12.8901 14.4258V18.7656H15.1675C15.3628 18.7656 15.4604 18.8503 15.4604 19.0195V19.4805C15.4604 19.6497 15.3628 19.7344 15.1675 19.7344H12.0229Z" fill="#33A6DD"/>
<path d="M6.23377 19.7344C5.98377 19.7344 5.93429 19.6224 6.08533 19.3984L7.8158 16.8438L6.22595 14.4688C6.07491 14.2448 6.12439 14.1328 6.37439 14.1328H7.16345C7.30147 14.1328 7.41866 14.2096 7.51502 14.3633L8.58142 16.0508L9.64783 14.3633C9.74418 14.2096 9.86137 14.1328 9.99939 14.1328H10.7885C11.0385 14.1328 11.0879 14.2448 10.9369 14.4688L9.34314 16.8438L11.0775 19.3984C11.2286 19.6224 11.1791 19.7344 10.9291 19.7344H10.1283C9.99288 19.7344 9.87569 19.6576 9.77674 19.5039L8.58142 17.6367L7.38611 19.5039C7.28715 19.6576 7.16996 19.7344 7.03455 19.7344H6.23377Z" fill="#33A6DD"/>
</svg>
