<svg width="21" height="18" viewBox="0 0 21 18" fill="none" xmlns="http://www.w3.org/2000/svg">
<path d="M15.1835 2.9692L20.1174 7.90312C20.4067 8.19241 20.5714 8.59018 20.5714 9C20.5714 9.40982 20.4067 9.80759 20.1174 10.0969L15.1835 15.0308C14.9263 15.2879 14.5808 15.4286 14.2192 15.4286C13.4679 15.4286 12.8571 14.8179 12.8571 14.0665V11.5714H7.71429C7.00312 11.5714 6.42857 10.9969 6.42857 10.2857V7.71429C6.42857 7.00312 7.00312 6.42857 7.71429 6.42857H12.8571V3.93348C12.8571 3.18214 13.4679 2.57143 14.2192 2.57143C14.5808 2.57143 14.9263 2.71607 15.1835 2.9692ZM6.42857 2.57143H3.85714C3.14598 2.57143 2.57143 3.14598 2.57143 3.85714V14.1429C2.57143 14.854 3.14598 15.4286 3.85714 15.4286H6.42857C7.13973 15.4286 7.71429 16.0031 7.71429 16.7143C7.71429 17.4254 7.13973 18 6.42857 18H3.85714C1.72768 18 0 16.2723 0 14.1429V3.85714C0 1.72768 1.72768 0 3.85714 0H6.42857C7.13973 0 7.71429 0.574554 7.71429 1.28571C7.71429 1.99688 7.13973 2.57143 6.42857 2.57143Z" fill="white"/>
</svg>
