<svg width="12" height="16" viewBox="0 0 12 16" fill="none" xmlns="http://www.w3.org/2000/svg">
<path fill-rule="evenodd" clip-rule="evenodd" d="M2 0C0.896875 0 0 0.896875 0 2V14C0 15.1031 0.896875 16 2 16H10C11.1031 16 12 15.1031 12 14V5H8C7.44688 5 7 4.55312 7 4V0H2ZM8 4H12L8 0V4ZM5.94137 12.3654V13H6.35432V12.3658C6.69732 12.3475 6.99612 12.2818 7.25072 12.1687C7.55623 12.0339 7.79041 11.8397 7.95324 11.5863C8.11607 11.3329 8.19832 11.0294 8.2 10.6758C8.19832 10.4516 8.16307 10.2492 8.09424 10.0687C8.02542 9.88828 7.92386 9.72878 7.78957 9.59023C7.65695 9.45169 7.49245 9.33229 7.29604 9.23203C7.10132 9.13177 6.87638 9.05156 6.62122 8.99141L6.35432 8.92553V7.75707C6.50105 7.78081 6.62023 7.83223 6.71187 7.91133C6.84448 8.02253 6.91918 8.17839 6.93597 8.37891H8.1295C8.12614 8.03073 8.04305 7.72448 7.88022 7.46016C7.71739 7.19583 7.48825 6.99076 7.19281 6.84492C6.94956 6.72266 6.67007 6.65102 6.35432 6.62999V6H5.94137V6.63084C5.63504 6.65273 5.35723 6.72318 5.10791 6.84219C4.8024 6.98802 4.56319 7.19128 4.39029 7.45195C4.21739 7.71263 4.13177 8.01615 4.13345 8.3625C4.13177 8.78724 4.25935 9.12448 4.51619 9.37422C4.77302 9.62214 5.1247 9.80169 5.57122 9.91289L5.94137 10.0068V11.24C5.83617 11.2256 5.73965 11.1988 5.6518 11.1598C5.51415 11.0978 5.40588 11.0066 5.32698 10.8863C5.24808 10.766 5.2036 10.6156 5.19353 10.4352H4C4.00504 10.8727 4.09652 11.2345 4.27446 11.5207C4.4524 11.8069 4.70168 12.0202 5.0223 12.1605C5.29003 12.2778 5.59639 12.346 5.94137 12.3654ZM6.35432 11.2366C6.43111 11.2243 6.50078 11.2051 6.56331 11.1789C6.68249 11.1297 6.77398 11.0613 6.83777 10.9738C6.90156 10.8863 6.93429 10.7861 6.93597 10.673C6.93429 10.5673 6.90408 10.4771 6.84532 10.4023C6.78657 10.3258 6.69592 10.2602 6.57338 10.2055C6.50968 10.1757 6.43666 10.1472 6.35432 10.1199V11.2366ZM5.94137 8.81549V7.75683C5.86916 7.76818 5.80454 7.78595 5.74748 7.81016C5.64005 7.85573 5.55947 7.91862 5.50576 7.99883C5.45204 8.07721 5.42434 8.16745 5.42266 8.26953C5.4193 8.35338 5.43441 8.42721 5.46799 8.49102C5.50324 8.55482 5.5536 8.61133 5.61906 8.66055C5.68621 8.70794 5.76679 8.74987 5.86079 8.78633C5.88675 8.7964 5.91361 8.80612 5.94137 8.81549Z" fill="white"/>
</svg>
